<svg id="SvgjsSvg1001" width="288" height="288" xmlns="http://www.w3.org/2000/svg" version="1.1" xmlns:xlink="http://www.w3.org/1999/xlink" xmlns:svgjs="http://svgjs.com/svgjs"><defs id="SvgjsDefs1002"></defs><g id="SvgjsG1008" transform="matrix(0.9167,0,0,0.9167,11.901487500000002,11.920230031776441)"><svg xmlns="http://www.w3.org/2000/svg" id="Layer_1" viewBox="0 0 64 64" width="288" height="288"><path fill="#000000" d="M31.75 43.3c-6.341 0-11.5-5.159-11.5-11.5s5.159-11.5 11.5-11.5 11.5 5.159 11.5 11.5-5.159 11.5-11.5 11.5zm0-22c-5.79 0-10.5 4.71-10.5 10.5s4.71 10.5 10.5 10.5 10.5-4.71 10.5-10.5-4.71-10.5-10.5-10.5z" class="color2c4355 svgShape"></path><path fill="#000000" d="M31.75 46.8c-8.271 0-15-6.729-15-15s6.729-15 15-15 15 6.729 15 15-6.729 15-15 15zm0-28c-7.168 0-13 5.832-13 13s5.832 13 13 13 13-5.832 13-13-5.832-13-13-13z" class="color2c4355 svgShape"></path><path fill="#0075ff" d="M34.527 31.039c.434-.639.688-1.41.688-2.239 0-2.206-1.794-4-4-4v-.5a.5.5 0 0 0-1 0v.5h-2v-.5a.5.5 0 0 0-1 0v.514a.993.993 0 0 0-.072 1.976v10.021a.994.994 0 0 0 .072 1.976v.513a.5.5 0 0 0 1 0v-.5h2v.5a.5.5 0 0 0 1 0v-.5h2c2.206 0 4-1.794 4-4-.001-1.743-1.129-3.214-2.688-3.761zM29.214 26.8h2c1.103 0 2 .897 2 2s-.897 2-2 2h-2v-4zm4 10h-4v-4h4c1.103 0 2 .897 2 2s-.897 2-2 2zM35.25 9.8h-7a.5.5 0 0 1-.5-.5v-5a.5.5 0 0 1 .5-.5h7a.5.5 0 0 1 .5.5v5a.5.5 0 0 1-.5.5zm-6.5-1h6v-4h-6v4zM35.25 59.8h-7a.5.5 0 0 1-.5-.5v-5a.5.5 0 0 1 .5-.5h7a.5.5 0 0 1 .5.5v5a.5.5 0 0 1-.5.5zm-6.5-1h6v-4h-6v4zM59.25 35.8h-5a.5.5 0 0 1-.5-.5v-7a.5.5 0 0 1 .5-.5h5a.5.5 0 0 1 .5.5v7a.5.5 0 0 1-.5.5zm-4.5-1h4v-6h-4v6zM9.25 35.8h-5a.5.5 0 0 1-.5-.5v-7a.5.5 0 0 1 .5-.5h5a.5.5 0 0 1 .5.5v7a.5.5 0 0 1-.5.5zm-4.5-1h4v-6h-4v6zM50.135 18.865a.502.502 0 0 1-.354-.146l-4.95-4.95a.5.5 0 0 1 0-.707l3.536-3.536a.5.5 0 0 1 .707 0l4.95 4.95a.5.5 0 0 1 0 .707l-3.536 3.536a.498.498 0 0 1-.353.146zm-4.243-5.449l4.243 4.243 2.829-2.829-4.243-4.243-2.829 2.829zM14.779 54.221a.502.502 0 0 1-.354-.146l-4.95-4.95a.5.5 0 0 1 0-.707l3.536-3.536a.5.5 0 0 1 .707 0l4.95 4.95a.5.5 0 0 1 0 .707l-3.536 3.536a.498.498 0 0 1-.353.146zm-4.242-5.45l4.243 4.243 2.829-2.829-4.243-4.243-2.829 2.829zM48.721 54.221a.502.502 0 0 1-.354-.146l-3.536-3.536a.5.5 0 0 1 0-.707l4.95-4.95a.5.5 0 0 1 .707 0l3.536 3.536a.5.5 0 0 1 0 .707l-4.95 4.95a.498.498 0 0 1-.353.146zm-2.829-4.036l2.829 2.829 4.243-4.243-2.829-2.829-4.243 4.243zM13.365 18.865a.502.502 0 0 1-.354-.146l-3.536-3.536a.5.5 0 0 1 0-.707l4.95-4.95a.5.5 0 0 1 .707 0l3.536 3.536a.5.5 0 0 1 0 .707l-4.95 4.95a.498.498 0 0 1-.353.146zm-2.828-4.035l2.829 2.829 4.243-4.243-2.829-2.829-4.243 4.243z" class="colorf15743 svgShape"></path><path fill="#000000" d="M36.25 11.8h-9a.5.5 0 0 1 0-1h9a.5.5 0 0 1 0 1zM36.25 52.8h-9a.5.5 0 0 1 0-1h9a.5.5 0 0 1 0 1zM52.25 36.8a.5.5 0 0 1-.5-.5v-9a.5.5 0 0 1 1 0v9a.5.5 0 0 1-.5.5zM11.25 36.8a.5.5 0 0 1-.5-.5v-9a.5.5 0 0 1 1 0v9a.5.5 0 0 1-.5.5zM49.428 20.987a.502.502 0 0 1-.354-.146l-6.364-6.364a.5.5 0 0 1 .707-.707l6.364 6.364a.5.5 0 0 1-.353.853zM20.437 49.978a.502.502 0 0 1-.354-.146l-6.364-6.364a.5.5 0 0 1 .707-.707l6.364 6.364a.5.5 0 0 1-.353.853zM43.063 49.978a.5.5 0 0 1-.354-.853l6.364-6.364a.5.5 0 0 1 .707.707l-6.364 6.364a.498.498 0 0 1-.353.146zM14.072 20.987a.5.5 0 0 1-.354-.853l6.364-6.364a.5.5 0 0 1 .707.707l-6.364 6.364a.498.498 0 0 1-.353.146z" class="color2c4355 svgShape"></path><path fill="#000000" d="M34.336 18.043a.453.453 0 0 1-.089-.008c-1.757-.316-3.237-.316-4.994 0a.5.5 0 0 1-.551-.684l2.586-6.243c.154-.374.77-.374.924 0l2.586 6.243a.5.5 0 0 1-.462.692zM31.75 16.8c.583 0 1.173.038 1.784.114l-1.784-4.308-1.784 4.308a14.394 14.394 0 0 1 1.784-.114zM43.666 24.049a.501.501 0 0 1-.411-.215 14.002 14.002 0 0 0-3.534-3.535.501.501 0 0 1 .094-.873l6.239-2.584a.515.515 0 0 1 .611.184.5.5 0 0 1 .051.469l-2.588 6.245a.502.502 0 0 1-.462.309zm-2.651-4.037c.941.74 1.788 1.587 2.527 2.529l1.79-4.317-4.317 1.788zM19.838 24.043a.502.502 0 0 1-.462-.309l-2.584-6.239a.499.499 0 0 1 .653-.653l6.239 2.584a.501.501 0 0 1 .094.872 14.007 14.007 0 0 0-3.529 3.529.497.497 0 0 1-.411.216zm-1.66-5.814l1.784 4.307a15.02 15.02 0 0 1 2.523-2.523l-4.307-1.784zM46.007 34.886a.5.5 0 0 1-.492-.589c.158-.878.235-1.695.235-2.497s-.077-1.619-.235-2.497a.5.5 0 0 1 .684-.551l6.243 2.586a.5.5 0 0 1 0 .924l-6.243 2.586a.498.498 0 0 1-.192.038zm.629-4.87c.077.611.114 1.201.114 1.784s-.038 1.173-.114 1.784l4.308-1.784-4.308-1.784zM46.246 46.796a.493.493 0 0 1-.191-.038l-6.239-2.584a.501.501 0 0 1-.094-.872 14.007 14.007 0 0 0 3.529-3.529.5.5 0 0 1 .872.094l2.584 6.239a.499.499 0 0 1-.461.69zm-5.231-3.208l4.307 1.784-1.784-4.307a14.945 14.945 0 0 1-2.523 2.523zM31.75 52.8a.5.5 0 0 1-.462-.309l-2.586-6.243a.5.5 0 0 1 .551-.684c1.757.316 3.24.316 4.996 0a.5.5 0 1 1 .551.684l-2.588 6.244a.5.5 0 0 1-.462.308zm-1.784-6.114l1.784 4.308 1.786-4.309a13.85 13.85 0 0 1-3.57.001zM17.254 46.796a.499.499 0 0 1-.462-.691l2.584-6.239a.501.501 0 0 1 .872-.094 14.024 14.024 0 0 0 3.529 3.529.501.501 0 0 1-.094.872l-6.239 2.584a.462.462 0 0 1-.19.039zm2.708-5.731l-1.784 4.307 4.307-1.784a14.982 14.982 0 0 1-2.523-2.523zM17.493 34.886a.512.512 0 0 1-.191-.038l-6.243-2.586a.5.5 0 0 1 0-.924l6.243-2.586a.502.502 0 0 1 .684.551c-.158.878-.235 1.695-.235 2.497s.077 1.619.235 2.497a.5.5 0 0 1-.493.589zM12.557 31.8l4.308 1.784c-.077-.611-.114-1.201-.114-1.784s.038-1.173.114-1.784L12.557 31.8z" class="color2c4355 svgShape"></path></svg></g></svg>